<?xml version="1.0" encoding="UTF-8"?>
<svg width="40px" height="40px" viewBox="0 0 40 40" version="1.1" xmlns="http://www.w3.org/2000/svg" xmlns:xlink="http://www.w3.org/1999/xlink">
    <title>Artboard</title>
    <g id="Artboard" stroke="none" stroke-width="1" fill="none" fill-rule="evenodd">
        <path d="M34.9244303,16.0799506 C35.5268845,11.8771129 32.4558839,9.61776677 28.2567027,8.11054908 L29.6188553,2.41727329 L26.2920958,1.55360888 L24.965939,7.09685385 C24.0925698,6.86983338 23.1945721,6.65564462 22.302258,6.44343 L23.6378875,0.8636644 L20.3139697,0 L18.9508699,5.69130169 C18.2271671,5.51955585 17.5167259,5.34978415 16.8271242,5.17112892 L16.8309133,5.15336215 L12.2443047,3.96002468 L11.3595686,7.66144354 C11.3595686,7.66144354 13.8271678,8.25070938 13.7750688,8.28723015 C15.1220652,8.63763108 15.3664571,9.56644046 15.3247778,10.302776 L13.7731742,16.7886489 C13.8660052,16.8133251 13.9863067,16.8488588 14.1189223,16.9041332 L13.7684379,16.8133251 L11.5925934,25.8990746 C11.427771,26.3254782 11.0100315,26.9650832 10.0684601,26.7222702 C10.1016139,26.7726095 7.6510654,26.0935225 7.6510654,26.0935225 L6,30.0614435 L10.3289552,31.1856878 C11.1341218,31.3959285 11.9231853,31.6160395 12.6989872,31.8233189 L11.3226257,37.5827268 L14.6446488,38.4463911 L16.008696,32.7491672 C16.9152189,33.0057989 17.7961661,33.2426897 18.658168,33.4657618 L17.2998045,39.1363355 L20.6256167,40 L22.0019781,34.2524368 C27.6731935,35.3707588 31.9386826,34.9196792 33.7318363,29.5758174 C35.1782946,25.2723011 33.6607922,22.7898828 30.676939,21.1701418 C32.849942,20.6460209 34.4867986,19.15657 34.9234831,16.0799506 L34.9244303,16.0799506 Z M27.884592,26.6807237 C26.7907948,30.601565 19.3980951,28.4828718 17,27.9505007 L18.9418427,21 C21.3389305,21.5341697 29.0247196,22.5917177 27.8855991,26.6807237 L27.884592,26.6807237 Z M27.902502,15.8830879 C27.0411702,19.370631 21.7252738,17.59872 20,17.1643159 L21.5208162,11 C23.2460899,11.4344041 28.8003751,12.2451743 27.902502,15.8830879 L27.902502,15.8830879 Z" id="Shape" fill="#FFB73C" fill-rule="nonzero"></path>
    </g>
</svg>