<svg id="Capa_1" data-name="Capa 1" xmlns="http://www.w3.org/2000/svg" viewBox="0 0 32 30">
  <defs>
    <style>.cls-1{fill:#5fa199;fill-rule:evenodd;}</style>
  </defs>
  <path class="cls-1"
        d="M19.19,6.44v3.82h0c7.12.34,12.46,1.75,12.46,3.44s-5.35,3.11-12.47,3.44V29.41H12.85V17.12C5.72,16.79.35,15.38.35,13.69s5.36-3.11,12.5-3.43V6.44H4.05V.59H28V6.44ZM19,16.08h.24v0c6.29-.31,11-1.39,11-2.72s-4.69-2.4-11-2.68V15h0c-.24,0-1.22.1-3.1.1-1.63,0-2.81-.07-3.22-.1V10.64c-6.3.31-11,1.36-11,2.72s4.71,2.43,11,2.71c.4,0,1.55.07,3.19.07S18.53,16.1,19,16.08Z"/>
</svg>
